<?xml version="1.0" encoding="UTF-8" standalone="no"?>
<!DOCTYPE svg PUBLIC "-//W3C//DTD SVG 1.1//EN"
 "http://www.w3.org/Graphics/SVG/1.1/DTD/svg11.dtd">
<!-- Generated by graphviz version 5.0.0 (20220707.1540)
 -->
<!-- Title: dependencies Pages: 1 -->
<svg width="1357pt" height="174pt"
 viewBox="0.00 0.00 1357.00 173.80" xmlns="http://www.w3.org/2000/svg" xmlns:xlink="http://www.w3.org/1999/xlink">
<g id="graph0" class="graph" transform="scale(1 1) rotate(0) translate(4 169.8)">
<title>dependencies</title>
<polygon fill="white" stroke="transparent" points="-4,4 -4,-169.8 1353,-169.8 1353,4 -4,4"/>
<text text-anchor="middle" x="674.5" y="-8.2" font-family="sans-serif" font-size="14.00">dependencies</text>
<g id="clust1" class="cluster">
<title>cluster_FundModule</title>
<polygon fill="none" stroke="black" stroke-dasharray="1,5" points="8,-32.8 8,-157.8 1341,-157.8 1341,-32.8 8,-32.8"/>
</g>
<g id="clust2" class="cluster">
<title>cluster_FundModule_declarations</title>
<polygon fill="none" stroke="black" points="342,-40.8 342,-92.8 1333,-92.8 1333,-40.8 342,-40.8"/>
</g>
<g id="clust10" class="cluster">
<title>cluster_FundModule_imports</title>
<polygon fill="none" stroke="black" points="16,-40.8 16,-92.8 334,-92.8 334,-40.8 16,-40.8"/>
</g>
<!-- CentralAddComponent -->
<g id="node1" class="node">
<title>CentralAddComponent</title>
<polygon fill="#ffffb3" stroke="black" points="1325.15,-84.8 1178.85,-84.8 1178.85,-48.8 1325.15,-48.8 1325.15,-84.8"/>
<text text-anchor="middle" x="1252" y="-62.6" font-family="Times,serif" font-size="14.00">CentralAddComponent</text>
</g>
<!-- FundModule -->
<g id="node8" class="node">
<title>FundModule</title>
<polygon fill="#8dd3c7" stroke="black" points="729.34,-149.8 726.34,-153.8 705.34,-153.8 702.34,-149.8 640.66,-149.8 640.66,-113.8 729.34,-113.8 729.34,-149.8"/>
<text text-anchor="middle" x="685" y="-127.6" font-family="Times,serif" font-size="14.00">FundModule</text>
</g>
<!-- CentralAddComponent&#45;&gt;FundModule -->
<g id="edge1" class="edge">
<title>CentralAddComponent&#45;&gt;FundModule</title>
<path fill="none" stroke="black" d="M1252,-84.81C1252,-107.29 1252,-142.8 1252,-142.8 1252,-142.8 739.49,-142.8 739.49,-142.8"/>
<polygon fill="black" stroke="black" points="739.49,-139.3 729.49,-142.8 739.49,-146.3 739.49,-139.3"/>
</g>
<!-- CentralComponent -->
<g id="node2" class="node">
<title>CentralComponent</title>
<polygon fill="#ffffb3" stroke="black" points="1160.04,-84.8 1037.96,-84.8 1037.96,-48.8 1160.04,-48.8 1160.04,-84.8"/>
<text text-anchor="middle" x="1099" y="-62.6" font-family="Times,serif" font-size="14.00">CentralComponent</text>
</g>
<!-- CentralComponent&#45;&gt;FundModule -->
<g id="edge2" class="edge">
<title>CentralComponent&#45;&gt;FundModule</title>
<path fill="none" stroke="black" d="M1099,-84.93C1099,-105.37 1099,-135.8 1099,-135.8 1099,-135.8 739.31,-135.8 739.31,-135.8"/>
<polygon fill="black" stroke="black" points="739.31,-132.3 729.31,-135.8 739.31,-139.3 739.31,-132.3"/>
</g>
<!-- FundComponent -->
<g id="node3" class="node">
<title>FundComponent</title>
<polygon fill="#ffffb3" stroke="black" points="1020.12,-84.8 909.88,-84.8 909.88,-48.8 1020.12,-48.8 1020.12,-84.8"/>
<text text-anchor="middle" x="965" y="-62.6" font-family="Times,serif" font-size="14.00">FundComponent</text>
</g>
<!-- FundComponent&#45;&gt;FundModule -->
<g id="edge3" class="edge">
<title>FundComponent&#45;&gt;FundModule</title>
<path fill="none" stroke="black" d="M965,-85.07C965,-103.36 965,-128.8 965,-128.8 965,-128.8 739.37,-128.8 739.37,-128.8"/>
<polygon fill="black" stroke="black" points="739.37,-125.3 729.37,-128.8 739.37,-132.3 739.37,-125.3"/>
</g>
<!-- FundTabComponent -->
<g id="node4" class="node">
<title>FundTabComponent</title>
<polygon fill="#ffffb3" stroke="black" points="891.88,-84.8 760.12,-84.8 760.12,-48.8 891.88,-48.8 891.88,-84.8"/>
<text text-anchor="middle" x="826" y="-62.6" font-family="Times,serif" font-size="14.00">FundTabComponent</text>
</g>
<!-- FundTabComponent&#45;&gt;FundModule -->
<g id="edge4" class="edge">
<title>FundTabComponent&#45;&gt;FundModule</title>
<path fill="none" stroke="black" d="M826,-84.81C826,-100.85 826,-121.8 826,-121.8 826,-121.8 739.23,-121.8 739.23,-121.8"/>
<polygon fill="black" stroke="black" points="739.23,-118.3 729.23,-121.8 739.23,-125.3 739.23,-118.3"/>
</g>
<!-- OtherComponent -->
<g id="node5" class="node">
<title>OtherComponent</title>
<polygon fill="#ffffb3" stroke="black" points="741.71,-84.8 628.29,-84.8 628.29,-48.8 741.71,-48.8 741.71,-84.8"/>
<text text-anchor="middle" x="685" y="-62.6" font-family="Times,serif" font-size="14.00">OtherComponent</text>
</g>
<!-- OtherComponent&#45;&gt;FundModule -->
<g id="edge5" class="edge">
<title>OtherComponent&#45;&gt;FundModule</title>
<path fill="none" stroke="black" d="M685,-84.91C685,-84.91 685,-103.79 685,-103.79"/>
<polygon fill="black" stroke="black" points="681.5,-103.79 685,-113.79 688.5,-103.79 681.5,-103.79"/>
</g>
<!-- StateAddComponent -->
<g id="node6" class="node">
<title>StateAddComponent</title>
<polygon fill="#ffffb3" stroke="black" points="610.94,-84.8 477.06,-84.8 477.06,-48.8 610.94,-48.8 610.94,-84.8"/>
<text text-anchor="middle" x="544" y="-62.6" font-family="Times,serif" font-size="14.00">StateAddComponent</text>
</g>
<!-- StateAddComponent&#45;&gt;FundModule -->
<g id="edge6" class="edge">
<title>StateAddComponent&#45;&gt;FundModule</title>
<path fill="none" stroke="black" d="M544,-84.81C544,-100.85 544,-121.8 544,-121.8 544,-121.8 630.77,-121.8 630.77,-121.8"/>
<polygon fill="black" stroke="black" points="630.77,-125.3 640.77,-121.8 630.77,-118.3 630.77,-125.3"/>
</g>
<!-- StateComponent -->
<g id="node7" class="node">
<title>StateComponent</title>
<polygon fill="#ffffb3" stroke="black" points="459.82,-84.8 350.18,-84.8 350.18,-48.8 459.82,-48.8 459.82,-84.8"/>
<text text-anchor="middle" x="405" y="-62.6" font-family="Times,serif" font-size="14.00">StateComponent</text>
</g>
<!-- StateComponent&#45;&gt;FundModule -->
<g id="edge7" class="edge">
<title>StateComponent&#45;&gt;FundModule</title>
<path fill="none" stroke="black" d="M405,-85.07C405,-103.36 405,-128.8 405,-128.8 405,-128.8 630.63,-128.8 630.63,-128.8"/>
<polygon fill="black" stroke="black" points="630.63,-132.3 640.63,-128.8 630.63,-125.3 630.63,-132.3"/>
</g>
<!-- FundRoutingModule -->
<g id="node9" class="node">
<title>FundRoutingModule</title>
<polygon fill="#8dd3c7" stroke="black" points="325.96,-84.8 322.96,-88.8 301.96,-88.8 298.96,-84.8 192.04,-84.8 192.04,-48.8 325.96,-48.8 325.96,-84.8"/>
<text text-anchor="middle" x="259" y="-62.6" font-family="Times,serif" font-size="14.00">FundRoutingModule</text>
</g>
<!-- FundRoutingModule&#45;&gt;FundModule -->
<g id="edge8" class="edge">
<title>FundRoutingModule&#45;&gt;FundModule</title>
<path fill="none" stroke="black" d="M259,-84.93C259,-105.37 259,-135.8 259,-135.8 259,-135.8 630.62,-135.8 630.62,-135.8"/>
<polygon fill="black" stroke="black" points="630.62,-139.3 640.62,-135.8 630.62,-132.3 630.62,-139.3"/>
</g>
<!-- SharedCommonModule -->
<g id="node10" class="node">
<title>SharedCommonModule</title>
<polygon fill="#8dd3c7" stroke="black" points="174.05,-84.8 171.05,-88.8 150.05,-88.8 147.05,-84.8 23.95,-84.8 23.95,-48.8 174.05,-48.8 174.05,-84.8"/>
<text text-anchor="middle" x="99" y="-62.6" font-family="Times,serif" font-size="14.00">SharedCommonModule</text>
</g>
<!-- SharedCommonModule&#45;&gt;FundModule -->
<g id="edge9" class="edge">
<title>SharedCommonModule&#45;&gt;FundModule</title>
<path fill="none" stroke="black" d="M99,-84.81C99,-107.29 99,-142.8 99,-142.8 99,-142.8 630.47,-142.8 630.47,-142.8"/>
<polygon fill="black" stroke="black" points="630.47,-146.3 640.47,-142.8 630.47,-139.3 630.47,-146.3"/>
</g>
</g>
</svg>
