<?xml version="1.0" encoding="UTF-8" standalone="no"?>
<!DOCTYPE svg PUBLIC "-//W3C//DTD SVG 1.1//EN"
 "http://www.w3.org/Graphics/SVG/1.1/DTD/svg11.dtd">
<!-- Generated by graphviz version 5.0.0 (20220707.1540)
 -->
<!-- Title: dependencies Pages: 1 -->
<svg width="1091pt" height="174pt"
 viewBox="0.00 0.00 1091.00 173.80" xmlns="http://www.w3.org/2000/svg" xmlns:xlink="http://www.w3.org/1999/xlink">
<g id="graph0" class="graph" transform="scale(1 1) rotate(0) translate(4 169.8)">
<title>dependencies</title>
<polygon fill="white" stroke="transparent" points="-4,4 -4,-169.8 1087,-169.8 1087,4 -4,4"/>
<text text-anchor="middle" x="541.5" y="-8.2" font-family="sans-serif" font-size="14.00">dependencies</text>
<g id="clust1" class="cluster">
<title>cluster_UtilizationModule</title>
<polygon fill="none" stroke="black" stroke-dasharray="1,5" points="8,-32.8 8,-157.8 1075,-157.8 1075,-32.8 8,-32.8"/>
</g>
<g id="clust2" class="cluster">
<title>cluster_UtilizationModule_declarations</title>
<polygon fill="none" stroke="black" points="373,-40.8 373,-92.8 1067,-92.8 1067,-40.8 373,-40.8"/>
</g>
<g id="clust7" class="cluster">
<title>cluster_UtilizationModule_imports</title>
<polygon fill="none" stroke="black" points="16,-40.8 16,-92.8 365,-92.8 365,-40.8 16,-40.8"/>
</g>
<!-- ComponentAddComponent -->
<g id="node1" class="node">
<title>ComponentAddComponent</title>
<polygon fill="#ffffb3" stroke="black" points="1059.27,-84.8 888.73,-84.8 888.73,-48.8 1059.27,-48.8 1059.27,-84.8"/>
<text text-anchor="middle" x="974" y="-62.6" font-family="Times,serif" font-size="14.00">ComponentAddComponent</text>
</g>
<!-- UtilizationModule -->
<g id="node5" class="node">
<title>UtilizationModule</title>
<polygon fill="#8dd3c7" stroke="black" points="596.93,-149.8 593.93,-153.8 572.93,-153.8 569.93,-149.8 477.07,-149.8 477.07,-113.8 596.93,-113.8 596.93,-149.8"/>
<text text-anchor="middle" x="537" y="-127.6" font-family="Times,serif" font-size="14.00">UtilizationModule</text>
</g>
<!-- ComponentAddComponent&#45;&gt;UtilizationModule -->
<g id="edge1" class="edge">
<title>ComponentAddComponent&#45;&gt;UtilizationModule</title>
<path fill="none" stroke="black" d="M974,-85.08C974,-106.12 974,-137.8 974,-137.8 974,-137.8 606.85,-137.8 606.85,-137.8"/>
<polygon fill="black" stroke="black" points="606.85,-134.3 596.85,-137.8 606.85,-141.3 606.85,-134.3"/>
</g>
<!-- ComponentComponent -->
<g id="node2" class="node">
<title>ComponentComponent</title>
<polygon fill="#ffffb3" stroke="black" points="870.16,-84.8 723.84,-84.8 723.84,-48.8 870.16,-48.8 870.16,-84.8"/>
<text text-anchor="middle" x="797" y="-62.6" font-family="Times,serif" font-size="14.00">ComponentComponent</text>
</g>
<!-- ComponentComponent&#45;&gt;UtilizationModule -->
<g id="edge2" class="edge">
<title>ComponentComponent&#45;&gt;UtilizationModule</title>
<path fill="none" stroke="black" d="M797,-84.82C797,-102.17 797,-125.8 797,-125.8 797,-125.8 606.98,-125.8 606.98,-125.8"/>
<polygon fill="black" stroke="black" points="606.98,-122.3 596.98,-125.8 606.98,-129.3 606.98,-122.3"/>
</g>
<!-- UtilizationAddComponent -->
<g id="node3" class="node">
<title>UtilizationAddComponent</title>
<polygon fill="#ffffb3" stroke="black" points="705.82,-84.8 540.18,-84.8 540.18,-48.8 705.82,-48.8 705.82,-84.8"/>
<text text-anchor="middle" x="623" y="-62.6" font-family="Times,serif" font-size="14.00">UtilizationAddComponent</text>
</g>
<!-- UtilizationAddComponent&#45;&gt;UtilizationModule -->
<g id="edge3" class="edge">
<title>UtilizationAddComponent&#45;&gt;UtilizationModule</title>
<path fill="none" stroke="black" d="M568.53,-84.91C568.53,-84.91 568.53,-103.79 568.53,-103.79"/>
<polygon fill="black" stroke="black" points="565.03,-103.79 568.53,-113.79 572.03,-103.79 565.03,-103.79"/>
</g>
<!-- UtilizationComponent -->
<g id="node4" class="node">
<title>UtilizationComponent</title>
<polygon fill="#ffffb3" stroke="black" points="522.71,-84.8 381.29,-84.8 381.29,-48.8 522.71,-48.8 522.71,-84.8"/>
<text text-anchor="middle" x="452" y="-62.6" font-family="Times,serif" font-size="14.00">UtilizationComponent</text>
</g>
<!-- UtilizationComponent&#45;&gt;UtilizationModule -->
<g id="edge4" class="edge">
<title>UtilizationComponent&#45;&gt;UtilizationModule</title>
<path fill="none" stroke="black" d="M499.94,-84.91C499.94,-84.91 499.94,-103.79 499.94,-103.79"/>
<polygon fill="black" stroke="black" points="496.44,-103.79 499.94,-113.79 503.44,-103.79 496.44,-103.79"/>
</g>
<!-- SharedCommonModule -->
<g id="node6" class="node">
<title>SharedCommonModule</title>
<polygon fill="#8dd3c7" stroke="black" points="357.05,-84.8 354.05,-88.8 333.05,-88.8 330.05,-84.8 206.95,-84.8 206.95,-48.8 357.05,-48.8 357.05,-84.8"/>
<text text-anchor="middle" x="282" y="-62.6" font-family="Times,serif" font-size="14.00">SharedCommonModule</text>
</g>
<!-- SharedCommonModule&#45;&gt;UtilizationModule -->
<g id="edge5" class="edge">
<title>SharedCommonModule&#45;&gt;UtilizationModule</title>
<path fill="none" stroke="black" d="M282,-84.82C282,-102.17 282,-125.8 282,-125.8 282,-125.8 467.21,-125.8 467.21,-125.8"/>
<polygon fill="black" stroke="black" points="467.21,-129.3 477.21,-125.8 467.21,-122.3 467.21,-129.3"/>
</g>
<!-- UtilizationRoutingModule -->
<g id="node7" class="node">
<title>UtilizationRoutingModule</title>
<polygon fill="#8dd3c7" stroke="black" points="188.05,-84.8 185.05,-88.8 164.05,-88.8 161.05,-84.8 23.95,-84.8 23.95,-48.8 188.05,-48.8 188.05,-84.8"/>
<text text-anchor="middle" x="106" y="-62.6" font-family="Times,serif" font-size="14.00">UtilizationRoutingModule</text>
</g>
<!-- UtilizationRoutingModule&#45;&gt;UtilizationModule -->
<g id="edge6" class="edge">
<title>UtilizationRoutingModule&#45;&gt;UtilizationModule</title>
<path fill="none" stroke="black" d="M106,-85.08C106,-106.12 106,-137.8 106,-137.8 106,-137.8 467.07,-137.8 467.07,-137.8"/>
<polygon fill="black" stroke="black" points="467.07,-141.3 477.07,-137.8 467.07,-134.3 467.07,-141.3"/>
</g>
</g>
</svg>
