<?xml version="1.0" encoding="UTF-8" standalone="no"?>
<!DOCTYPE svg PUBLIC "-//W3C//DTD SVG 1.1//EN"
 "http://www.w3.org/Graphics/SVG/1.1/DTD/svg11.dtd">
<!-- Generated by graphviz version 5.0.0 (20220707.1540)
 -->
<!-- Title: dependencies Pages: 1 -->
<svg width="775pt" height="174pt"
 viewBox="0.00 0.00 775.00 173.80" xmlns="http://www.w3.org/2000/svg" xmlns:xlink="http://www.w3.org/1999/xlink">
<g id="graph0" class="graph" transform="scale(1 1) rotate(0) translate(4 169.8)">
<title>dependencies</title>
<polygon fill="white" stroke="transparent" points="-4,4 -4,-169.8 771,-169.8 771,4 -4,4"/>
<text text-anchor="middle" x="383.5" y="-8.2" font-family="sans-serif" font-size="14.00">dependencies</text>
<g id="clust1" class="cluster">
<title>cluster_ReportModule</title>
<polygon fill="none" stroke="black" stroke-dasharray="1,5" points="8,-32.8 8,-157.8 759,-157.8 759,-32.8 8,-32.8"/>
</g>
<g id="clust6" class="cluster">
<title>cluster_ReportModule_imports</title>
<polygon fill="none" stroke="black" points="424,-40.8 424,-92.8 751,-92.8 751,-40.8 424,-40.8"/>
</g>
<g id="clust2" class="cluster">
<title>cluster_ReportModule_declarations</title>
<polygon fill="none" stroke="black" points="16,-40.8 16,-92.8 416,-92.8 416,-40.8 16,-40.8"/>
</g>
<!-- FundUtComponent -->
<g id="node1" class="node">
<title>FundUtComponent</title>
<polygon fill="#ffffb3" stroke="black" points="408.12,-84.8 283.88,-84.8 283.88,-48.8 408.12,-48.8 408.12,-84.8"/>
<text text-anchor="middle" x="346" y="-62.6" font-family="Times,serif" font-size="14.00">FundUtComponent</text>
</g>
<!-- ReportModule -->
<g id="node4" class="node">
<title>ReportModule</title>
<polygon fill="#8dd3c7" stroke="black" points="394.66,-149.8 391.66,-153.8 370.66,-153.8 367.66,-149.8 297.34,-149.8 297.34,-113.8 394.66,-113.8 394.66,-149.8"/>
<text text-anchor="middle" x="346" y="-127.6" font-family="Times,serif" font-size="14.00">ReportModule</text>
</g>
<!-- FundUtComponent&#45;&gt;ReportModule -->
<g id="edge1" class="edge">
<title>FundUtComponent&#45;&gt;ReportModule</title>
<path fill="none" stroke="black" d="M346,-84.91C346,-84.91 346,-103.79 346,-103.79"/>
<polygon fill="black" stroke="black" points="342.5,-103.79 346,-113.79 349.5,-103.79 342.5,-103.79"/>
</g>
<!-- KeyComponent -->
<g id="node2" class="node">
<title>KeyComponent</title>
<polygon fill="#ffffb3" stroke="black" points="266.16,-84.8 161.84,-84.8 161.84,-48.8 266.16,-48.8 266.16,-84.8"/>
<text text-anchor="middle" x="214" y="-62.6" font-family="Times,serif" font-size="14.00">KeyComponent</text>
</g>
<!-- KeyComponent&#45;&gt;ReportModule -->
<g id="edge2" class="edge">
<title>KeyComponent&#45;&gt;ReportModule</title>
<path fill="none" stroke="black" d="M214,-84.82C214,-102.17 214,-125.8 214,-125.8 214,-125.8 287.22,-125.8 287.22,-125.8"/>
<polygon fill="black" stroke="black" points="287.22,-129.3 297.22,-125.8 287.22,-122.3 287.22,-129.3"/>
</g>
<!-- ReportComponent -->
<g id="node3" class="node">
<title>ReportComponent</title>
<polygon fill="#ffffb3" stroke="black" points="143.94,-84.8 24.06,-84.8 24.06,-48.8 143.94,-48.8 143.94,-84.8"/>
<text text-anchor="middle" x="84" y="-62.6" font-family="Times,serif" font-size="14.00">ReportComponent</text>
</g>
<!-- ReportComponent&#45;&gt;ReportModule -->
<g id="edge3" class="edge">
<title>ReportComponent&#45;&gt;ReportModule</title>
<path fill="none" stroke="black" d="M84,-85.08C84,-106.12 84,-137.8 84,-137.8 84,-137.8 287.33,-137.8 287.33,-137.8"/>
<polygon fill="black" stroke="black" points="287.33,-141.3 297.33,-137.8 287.33,-134.3 287.33,-141.3"/>
</g>
<!-- ReportRoutingModule -->
<g id="node5" class="node">
<title>ReportRoutingModule</title>
<polygon fill="#8dd3c7" stroke="black" points="743.27,-84.8 740.27,-88.8 719.27,-88.8 716.27,-84.8 600.73,-84.8 600.73,-48.8 743.27,-48.8 743.27,-84.8"/>
<text text-anchor="middle" x="672" y="-62.6" font-family="Times,serif" font-size="14.00">ReportRoutingModule</text>
</g>
<!-- ReportRoutingModule&#45;&gt;ReportModule -->
<g id="edge4" class="edge">
<title>ReportRoutingModule&#45;&gt;ReportModule</title>
<path fill="none" stroke="black" d="M672,-85.08C672,-106.12 672,-137.8 672,-137.8 672,-137.8 404.81,-137.8 404.81,-137.8"/>
<polygon fill="black" stroke="black" points="404.81,-134.3 394.81,-137.8 404.81,-141.3 404.81,-134.3"/>
</g>
<!-- SharedCommonModule -->
<g id="node6" class="node">
<title>SharedCommonModule</title>
<polygon fill="#8dd3c7" stroke="black" points="582.05,-84.8 579.05,-88.8 558.05,-88.8 555.05,-84.8 431.95,-84.8 431.95,-48.8 582.05,-48.8 582.05,-84.8"/>
<text text-anchor="middle" x="507" y="-62.6" font-family="Times,serif" font-size="14.00">SharedCommonModule</text>
</g>
<!-- SharedCommonModule&#45;&gt;ReportModule -->
<g id="edge5" class="edge">
<title>SharedCommonModule&#45;&gt;ReportModule</title>
<path fill="none" stroke="black" d="M507,-84.82C507,-102.17 507,-125.8 507,-125.8 507,-125.8 404.74,-125.8 404.74,-125.8"/>
<polygon fill="black" stroke="black" points="404.74,-122.3 394.74,-125.8 404.74,-129.3 404.74,-122.3"/>
</g>
</g>
</svg>
