<?xml version="1.0" encoding="UTF-8" standalone="no"?>
<!DOCTYPE svg PUBLIC "-//W3C//DTD SVG 1.1//EN"
 "http://www.w3.org/Graphics/SVG/1.1/DTD/svg11.dtd">
<!-- Generated by graphviz version 5.0.0 (20220707.1540)
 -->
<!-- Title: dependencies Pages: 1 -->
<svg width="1014pt" height="174pt"
 viewBox="0.00 0.00 1014.00 173.80" xmlns="http://www.w3.org/2000/svg" xmlns:xlink="http://www.w3.org/1999/xlink">
<g id="graph0" class="graph" transform="scale(1 1) rotate(0) translate(4 169.8)">
<title>dependencies</title>
<polygon fill="white" stroke="transparent" points="-4,4 -4,-169.8 1010,-169.8 1010,4 -4,4"/>
<text text-anchor="middle" x="503" y="-8.2" font-family="sans-serif" font-size="14.00">dependencies</text>
<g id="clust1" class="cluster">
<title>cluster_TrackKpiModule</title>
<polygon fill="none" stroke="black" stroke-dasharray="1,5" points="8,-32.8 8,-157.8 998,-157.8 998,-32.8 8,-32.8"/>
</g>
<g id="clust7" class="cluster">
<title>cluster_TrackKpiModule_imports</title>
<polygon fill="none" stroke="black" points="648,-40.8 648,-92.8 990,-92.8 990,-40.8 648,-40.8"/>
</g>
<g id="clust2" class="cluster">
<title>cluster_TrackKpiModule_declarations</title>
<polygon fill="none" stroke="black" points="16,-40.8 16,-92.8 640,-92.8 640,-40.8 16,-40.8"/>
</g>
<!-- CrpwiseAddComponent -->
<g id="node1" class="node">
<title>CrpwiseAddComponent</title>
<polygon fill="#ffffb3" stroke="black" points="632.1,-84.8 479.9,-84.8 479.9,-48.8 632.1,-48.8 632.1,-84.8"/>
<text text-anchor="middle" x="556" y="-62.6" font-family="Times,serif" font-size="14.00">CrpwiseAddComponent</text>
</g>
<!-- TrackKpiModule -->
<g id="node5" class="node">
<title>TrackKpiModule</title>
<polygon fill="#8dd3c7" stroke="black" points="533.69,-149.8 530.69,-153.8 509.69,-153.8 506.69,-149.8 420.31,-149.8 420.31,-113.8 533.69,-113.8 533.69,-149.8"/>
<text text-anchor="middle" x="477" y="-127.6" font-family="Times,serif" font-size="14.00">TrackKpiModule</text>
</g>
<!-- CrpwiseAddComponent&#45;&gt;TrackKpiModule -->
<g id="edge1" class="edge">
<title>CrpwiseAddComponent&#45;&gt;TrackKpiModule</title>
<path fill="none" stroke="black" d="M506.77,-84.91C506.77,-84.91 506.77,-103.79 506.77,-103.79"/>
<polygon fill="black" stroke="black" points="503.27,-103.79 506.77,-113.79 510.27,-103.79 503.27,-103.79"/>
</g>
<!-- CrpwiseComponent -->
<g id="node2" class="node">
<title>CrpwiseComponent</title>
<polygon fill="#ffffb3" stroke="black" points="461.99,-84.8 334.01,-84.8 334.01,-48.8 461.99,-48.8 461.99,-84.8"/>
<text text-anchor="middle" x="398" y="-62.6" font-family="Times,serif" font-size="14.00">CrpwiseComponent</text>
</g>
<!-- CrpwiseComponent&#45;&gt;TrackKpiModule -->
<g id="edge2" class="edge">
<title>CrpwiseComponent&#45;&gt;TrackKpiModule</title>
<path fill="none" stroke="black" d="M441.2,-84.91C441.2,-84.91 441.2,-103.79 441.2,-103.79"/>
<polygon fill="black" stroke="black" points="437.7,-103.79 441.2,-113.79 444.7,-103.79 437.7,-103.79"/>
</g>
<!-- TrackKpiComponent -->
<g id="node3" class="node">
<title>TrackKpiComponent</title>
<polygon fill="#ffffb3" stroke="black" points="316.47,-84.8 181.53,-84.8 181.53,-48.8 316.47,-48.8 316.47,-84.8"/>
<text text-anchor="middle" x="249" y="-62.6" font-family="Times,serif" font-size="14.00">TrackKpiComponent</text>
</g>
<!-- TrackKpiComponent&#45;&gt;TrackKpiModule -->
<g id="edge3" class="edge">
<title>TrackKpiComponent&#45;&gt;TrackKpiModule</title>
<path fill="none" stroke="black" d="M249,-84.82C249,-102.17 249,-125.8 249,-125.8 249,-125.8 410.35,-125.8 410.35,-125.8"/>
<polygon fill="black" stroke="black" points="410.35,-129.3 420.35,-125.8 410.35,-122.3 410.35,-129.3"/>
</g>
<!-- TrackinterComponent -->
<g id="node4" class="node">
<title>TrackinterComponent</title>
<polygon fill="#ffffb3" stroke="black" points="163.63,-84.8 24.37,-84.8 24.37,-48.8 163.63,-48.8 163.63,-84.8"/>
<text text-anchor="middle" x="94" y="-62.6" font-family="Times,serif" font-size="14.00">TrackinterComponent</text>
</g>
<!-- TrackinterComponent&#45;&gt;TrackKpiModule -->
<g id="edge4" class="edge">
<title>TrackinterComponent&#45;&gt;TrackKpiModule</title>
<path fill="none" stroke="black" d="M94,-85.08C94,-106.12 94,-137.8 94,-137.8 94,-137.8 410.07,-137.8 410.07,-137.8"/>
<polygon fill="black" stroke="black" points="410.07,-141.3 420.07,-137.8 410.07,-134.3 410.07,-141.3"/>
</g>
<!-- SharedCommonModule -->
<g id="node6" class="node">
<title>SharedCommonModule</title>
<polygon fill="#8dd3c7" stroke="black" points="982.05,-84.8 979.05,-88.8 958.05,-88.8 955.05,-84.8 831.95,-84.8 831.95,-48.8 982.05,-48.8 982.05,-84.8"/>
<text text-anchor="middle" x="907" y="-62.6" font-family="Times,serif" font-size="14.00">SharedCommonModule</text>
</g>
<!-- SharedCommonModule&#45;&gt;TrackKpiModule -->
<g id="edge5" class="edge">
<title>SharedCommonModule&#45;&gt;TrackKpiModule</title>
<path fill="none" stroke="black" d="M907,-85.08C907,-106.12 907,-137.8 907,-137.8 907,-137.8 543.66,-137.8 543.66,-137.8"/>
<polygon fill="black" stroke="black" points="543.66,-134.3 533.66,-137.8 543.66,-141.3 543.66,-134.3"/>
</g>
<!-- TrackKpiRoutingModule -->
<g id="node7" class="node">
<title>TrackKpiRoutingModule</title>
<polygon fill="#8dd3c7" stroke="black" points="814.31,-84.8 811.31,-88.8 790.31,-88.8 787.31,-84.8 655.69,-84.8 655.69,-48.8 814.31,-48.8 814.31,-84.8"/>
<text text-anchor="middle" x="735" y="-62.6" font-family="Times,serif" font-size="14.00">TrackKpiRoutingModule</text>
</g>
<!-- TrackKpiRoutingModule&#45;&gt;TrackKpiModule -->
<g id="edge6" class="edge">
<title>TrackKpiRoutingModule&#45;&gt;TrackKpiModule</title>
<path fill="none" stroke="black" d="M735,-84.82C735,-102.17 735,-125.8 735,-125.8 735,-125.8 543.62,-125.8 543.62,-125.8"/>
<polygon fill="black" stroke="black" points="543.62,-122.3 533.62,-125.8 543.62,-129.3 543.62,-122.3"/>
</g>
</g>
</svg>
