<?xml version="1.0" encoding="UTF-8" standalone="no"?>
<!DOCTYPE svg PUBLIC "-//W3C//DTD SVG 1.1//EN"
 "http://www.w3.org/Graphics/SVG/1.1/DTD/svg11.dtd">
<!-- Generated by graphviz version 5.0.0 (20220707.1540)
 -->
<!-- Title: dependencies Pages: 1 -->
<svg width="2662pt" height="174pt"
 viewBox="0.00 0.00 2662.00 173.80" xmlns="http://www.w3.org/2000/svg" xmlns:xlink="http://www.w3.org/1999/xlink">
<g id="graph0" class="graph" transform="scale(1 1) rotate(0) translate(4 169.8)">
<title>dependencies</title>
<polygon fill="white" stroke="transparent" points="-4,4 -4,-169.8 2658,-169.8 2658,4 -4,4"/>
<text text-anchor="middle" x="1327" y="-8.2" font-family="sans-serif" font-size="14.00">dependencies</text>
<g id="clust1" class="cluster">
<title>cluster_CrpModule</title>
<polygon fill="none" stroke="black" stroke-dasharray="1,5" points="8,-32.8 8,-157.8 2646,-157.8 2646,-32.8 8,-32.8"/>
</g>
<g id="clust2" class="cluster">
<title>cluster_CrpModule_declarations</title>
<polygon fill="none" stroke="black" points="334,-40.8 334,-92.8 2638,-92.8 2638,-40.8 334,-40.8"/>
</g>
<g id="clust17" class="cluster">
<title>cluster_CrpModule_imports</title>
<polygon fill="none" stroke="black" points="16,-40.8 16,-92.8 326,-92.8 326,-40.8 16,-40.8"/>
</g>
<!-- AddVillagesComponent -->
<g id="node1" class="node">
<title>AddVillagesComponent</title>
<polygon fill="#ffffb3" stroke="black" points="2630.1,-84.8 2477.9,-84.8 2477.9,-48.8 2630.1,-48.8 2630.1,-84.8"/>
<text text-anchor="middle" x="2554" y="-62.6" font-family="Times,serif" font-size="14.00">AddVillagesComponent</text>
</g>
<!-- CrpModule -->
<g id="node15" class="node">
<title>CrpModule</title>
<polygon fill="#8dd3c7" stroke="black" points="1267.05,-149.8 1264.05,-153.8 1243.05,-153.8 1240.05,-149.8 1186.95,-149.8 1186.95,-113.8 1267.05,-113.8 1267.05,-149.8"/>
<text text-anchor="middle" x="1227" y="-127.6" font-family="Times,serif" font-size="14.00">CrpModule</text>
</g>
<!-- AddVillagesComponent&#45;&gt;CrpModule -->
<g id="edge1" class="edge">
<title>AddVillagesComponent&#45;&gt;CrpModule</title>
<path fill="none" stroke="black" d="M2554,-85.12C2554,-108.46 2554,-145.8 2554,-145.8 2554,-145.8 1277.08,-145.8 1277.08,-145.8"/>
<polygon fill="black" stroke="black" points="1277.08,-142.3 1267.08,-145.8 1277.08,-149.3 1277.08,-142.3"/>
</g>
<!-- AssigncrpAddComponent -->
<g id="node2" class="node">
<title>AssigncrpAddComponent</title>
<polygon fill="#ffffb3" stroke="black" points="2460.21,-84.8 2297.79,-84.8 2297.79,-48.8 2460.21,-48.8 2460.21,-84.8"/>
<text text-anchor="middle" x="2379" y="-62.6" font-family="Times,serif" font-size="14.00">AssigncrpAddComponent</text>
</g>
<!-- AssigncrpAddComponent&#45;&gt;CrpModule -->
<g id="edge2" class="edge">
<title>AssigncrpAddComponent&#45;&gt;CrpModule</title>
<path fill="none" stroke="black" d="M2379,-85.09C2379,-107.01 2379,-140.8 2379,-140.8 2379,-140.8 1277.32,-140.8 1277.32,-140.8"/>
<polygon fill="black" stroke="black" points="1277.32,-137.3 1267.32,-140.8 1277.32,-144.3 1277.32,-137.3"/>
</g>
<!-- AssigncrpComponent -->
<g id="node3" class="node">
<title>AssigncrpComponent</title>
<polygon fill="#ffffb3" stroke="black" points="2280.1,-84.8 2141.9,-84.8 2141.9,-48.8 2280.1,-48.8 2280.1,-84.8"/>
<text text-anchor="middle" x="2211" y="-62.6" font-family="Times,serif" font-size="14.00">AssigncrpComponent</text>
</g>
<!-- AssigncrpComponent&#45;&gt;CrpModule -->
<g id="edge3" class="edge">
<title>AssigncrpComponent&#45;&gt;CrpModule</title>
<path fill="none" stroke="black" d="M2211,-84.83C2211,-105.57 2211,-136.8 2211,-136.8 2211,-136.8 1277.1,-136.8 1277.1,-136.8"/>
<polygon fill="black" stroke="black" points="1277.1,-133.3 1267.1,-136.8 1277.1,-140.3 1277.1,-133.3"/>
</g>
<!-- AssignshgAddComponent -->
<g id="node4" class="node">
<title>AssignshgAddComponent</title>
<polygon fill="#ffffb3" stroke="black" points="2123.79,-84.8 1960.21,-84.8 1960.21,-48.8 2123.79,-48.8 2123.79,-84.8"/>
<text text-anchor="middle" x="2042" y="-62.6" font-family="Times,serif" font-size="14.00">AssignshgAddComponent</text>
</g>
<!-- AssignshgAddComponent&#45;&gt;CrpModule -->
<g id="edge4" class="edge">
<title>AssignshgAddComponent&#45;&gt;CrpModule</title>
<path fill="none" stroke="black" d="M2042,-84.91C2042,-104.14 2042,-131.8 2042,-131.8 2042,-131.8 1277.14,-131.8 1277.14,-131.8"/>
<polygon fill="black" stroke="black" points="1277.14,-128.3 1267.14,-131.8 1277.14,-135.3 1277.14,-128.3"/>
</g>
<!-- AssignshgComponent -->
<g id="node5" class="node">
<title>AssignshgComponent</title>
<polygon fill="#ffffb3" stroke="black" points="1941.68,-84.8 1802.32,-84.8 1802.32,-48.8 1941.68,-48.8 1941.68,-84.8"/>
<text text-anchor="middle" x="1872" y="-62.6" font-family="Times,serif" font-size="14.00">AssignshgComponent</text>
</g>
<!-- AssignshgComponent&#45;&gt;CrpModule -->
<g id="edge5" class="edge">
<title>AssignshgComponent&#45;&gt;CrpModule</title>
<path fill="none" stroke="black" d="M1872,-85.1C1872,-103.07 1872,-127.8 1872,-127.8 1872,-127.8 1277.35,-127.8 1277.35,-127.8"/>
<polygon fill="black" stroke="black" points="1277.35,-124.3 1267.35,-127.8 1277.35,-131.3 1277.35,-124.3"/>
</g>
<!-- AssignvillagesAddComponent -->
<g id="node6" class="node">
<title>AssignvillagesAddComponent</title>
<polygon fill="#ffffb3" stroke="black" points="1783.88,-84.8 1596.12,-84.8 1596.12,-48.8 1783.88,-48.8 1783.88,-84.8"/>
<text text-anchor="middle" x="1690" y="-62.6" font-family="Times,serif" font-size="14.00">AssignvillagesAddComponent</text>
</g>
<!-- AssignvillagesAddComponent&#45;&gt;CrpModule -->
<g id="edge6" class="edge">
<title>AssignvillagesAddComponent&#45;&gt;CrpModule</title>
<path fill="none" stroke="black" d="M1690,-84.83C1690,-101.2 1690,-122.8 1690,-122.8 1690,-122.8 1277.28,-122.8 1277.28,-122.8"/>
<polygon fill="black" stroke="black" points="1277.28,-119.3 1267.28,-122.8 1277.28,-126.3 1277.28,-119.3"/>
</g>
<!-- AssignvillagesComponent -->
<g id="node7" class="node">
<title>AssignvillagesComponent</title>
<polygon fill="#ffffb3" stroke="black" points="1577.77,-84.8 1414.23,-84.8 1414.23,-48.8 1577.77,-48.8 1577.77,-84.8"/>
<text text-anchor="middle" x="1496" y="-62.6" font-family="Times,serif" font-size="14.00">AssignvillagesComponent</text>
</g>
<!-- AssignvillagesComponent&#45;&gt;CrpModule -->
<g id="edge7" class="edge">
<title>AssignvillagesComponent&#45;&gt;CrpModule</title>
<path fill="none" stroke="black" d="M1496,-84.99C1496,-99.98 1496,-118.8 1496,-118.8 1496,-118.8 1277.27,-118.8 1277.27,-118.8"/>
<polygon fill="black" stroke="black" points="1277.27,-115.3 1267.27,-118.8 1277.27,-122.3 1277.27,-115.3"/>
</g>
<!-- BlocklevelAddComponent -->
<g id="node8" class="node">
<title>BlocklevelAddComponent</title>
<polygon fill="#ffffb3" stroke="black" points="1396.09,-84.8 1229.91,-84.8 1229.91,-48.8 1396.09,-48.8 1396.09,-84.8"/>
<text text-anchor="middle" x="1313" y="-62.6" font-family="Times,serif" font-size="14.00">BlocklevelAddComponent</text>
</g>
<!-- BlocklevelAddComponent&#45;&gt;CrpModule -->
<g id="edge8" class="edge">
<title>BlocklevelAddComponent&#45;&gt;CrpModule</title>
<path fill="none" stroke="black" d="M1248.62,-84.91C1248.62,-84.91 1248.62,-103.79 1248.62,-103.79"/>
<polygon fill="black" stroke="black" points="1245.12,-103.79 1248.62,-113.79 1252.12,-103.79 1245.12,-103.79"/>
</g>
<!-- BlocklevelComponent -->
<g id="node9" class="node">
<title>BlocklevelComponent</title>
<polygon fill="#ffffb3" stroke="black" points="1211.98,-84.8 1070.02,-84.8 1070.02,-48.8 1211.98,-48.8 1211.98,-84.8"/>
<text text-anchor="middle" x="1141" y="-62.6" font-family="Times,serif" font-size="14.00">BlocklevelComponent</text>
</g>
<!-- BlocklevelComponent&#45;&gt;CrpModule -->
<g id="edge9" class="edge">
<title>BlocklevelComponent&#45;&gt;CrpModule</title>
<path fill="none" stroke="black" d="M1199.36,-84.91C1199.36,-84.91 1199.36,-103.79 1199.36,-103.79"/>
<polygon fill="black" stroke="black" points="1195.86,-103.79 1199.36,-113.79 1202.86,-103.79 1195.86,-103.79"/>
</g>
<!-- CrpComponent -->
<g id="node10" class="node">
<title>CrpComponent</title>
<polygon fill="#ffffb3" stroke="black" points="1052.33,-84.8 949.67,-84.8 949.67,-48.8 1052.33,-48.8 1052.33,-84.8"/>
<text text-anchor="middle" x="1001" y="-62.6" font-family="Times,serif" font-size="14.00">CrpComponent</text>
</g>
<!-- CrpComponent&#45;&gt;CrpModule -->
<g id="edge10" class="edge">
<title>CrpComponent&#45;&gt;CrpModule</title>
<path fill="none" stroke="black" d="M1001,-84.99C1001,-99.98 1001,-118.8 1001,-118.8 1001,-118.8 1176.86,-118.8 1176.86,-118.8"/>
<polygon fill="black" stroke="black" points="1176.86,-122.3 1186.86,-118.8 1176.86,-115.3 1176.86,-122.3"/>
</g>
<!-- CrpTabComponent -->
<g id="node11" class="node">
<title>CrpTabComponent</title>
<polygon fill="#ffffb3" stroke="black" points="932.1,-84.8 807.9,-84.8 807.9,-48.8 932.1,-48.8 932.1,-84.8"/>
<text text-anchor="middle" x="870" y="-62.6" font-family="Times,serif" font-size="14.00">CrpTabComponent</text>
</g>
<!-- CrpTabComponent&#45;&gt;CrpModule -->
<g id="edge11" class="edge">
<title>CrpTabComponent&#45;&gt;CrpModule</title>
<path fill="none" stroke="black" d="M870,-84.83C870,-101.2 870,-122.8 870,-122.8 870,-122.8 1176.74,-122.8 1176.74,-122.8"/>
<polygon fill="black" stroke="black" points="1176.74,-126.3 1186.74,-122.8 1176.74,-119.3 1176.74,-126.3"/>
</g>
<!-- DistlevelAddComponent -->
<g id="node12" class="node">
<title>DistlevelAddComponent</title>
<polygon fill="#ffffb3" stroke="black" points="789.99,-84.8 634.01,-84.8 634.01,-48.8 789.99,-48.8 789.99,-84.8"/>
<text text-anchor="middle" x="712" y="-62.6" font-family="Times,serif" font-size="14.00">DistlevelAddComponent</text>
</g>
<!-- DistlevelAddComponent&#45;&gt;CrpModule -->
<g id="edge12" class="edge">
<title>DistlevelAddComponent&#45;&gt;CrpModule</title>
<path fill="none" stroke="black" d="M712,-85.1C712,-103.07 712,-127.8 712,-127.8 712,-127.8 1176.59,-127.8 1176.59,-127.8"/>
<polygon fill="black" stroke="black" points="1176.59,-131.3 1186.59,-127.8 1176.59,-124.3 1176.59,-131.3"/>
</g>
<!-- DistlevelComponent -->
<g id="node13" class="node">
<title>DistlevelComponent</title>
<polygon fill="#ffffb3" stroke="black" points="615.88,-84.8 484.12,-84.8 484.12,-48.8 615.88,-48.8 615.88,-84.8"/>
<text text-anchor="middle" x="550" y="-62.6" font-family="Times,serif" font-size="14.00">DistlevelComponent</text>
</g>
<!-- DistlevelComponent&#45;&gt;CrpModule -->
<g id="edge13" class="edge">
<title>DistlevelComponent&#45;&gt;CrpModule</title>
<path fill="none" stroke="black" d="M550,-84.91C550,-104.14 550,-131.8 550,-131.8 550,-131.8 1176.68,-131.8 1176.68,-131.8"/>
<polygon fill="black" stroke="black" points="1176.68,-135.3 1186.68,-131.8 1176.68,-128.3 1176.68,-135.3"/>
</g>
<!-- HistoryComponent -->
<g id="node14" class="node">
<title>HistoryComponent</title>
<polygon fill="#ffffb3" stroke="black" points="465.83,-84.8 342.17,-84.8 342.17,-48.8 465.83,-48.8 465.83,-84.8"/>
<text text-anchor="middle" x="404" y="-62.6" font-family="Times,serif" font-size="14.00">HistoryComponent</text>
</g>
<!-- HistoryComponent&#45;&gt;CrpModule -->
<g id="edge14" class="edge">
<title>HistoryComponent&#45;&gt;CrpModule</title>
<path fill="none" stroke="black" d="M404,-84.83C404,-105.57 404,-136.8 404,-136.8 404,-136.8 1176.75,-136.8 1176.75,-136.8"/>
<polygon fill="black" stroke="black" points="1176.75,-140.3 1186.75,-136.8 1176.75,-133.3 1176.75,-140.3"/>
</g>
<!-- CrpRoutingModule -->
<g id="node16" class="node">
<title>CrpRoutingModule</title>
<polygon fill="#8dd3c7" stroke="black" points="317.67,-84.8 314.67,-88.8 293.67,-88.8 290.67,-84.8 192.33,-84.8 192.33,-48.8 317.67,-48.8 317.67,-84.8"/>
<text text-anchor="middle" x="255" y="-62.6" font-family="Times,serif" font-size="14.00">CrpRoutingModule</text>
</g>
<!-- CrpRoutingModule&#45;&gt;CrpModule -->
<g id="edge15" class="edge">
<title>CrpRoutingModule&#45;&gt;CrpModule</title>
<path fill="none" stroke="black" d="M255,-85.09C255,-107.01 255,-140.8 255,-140.8 255,-140.8 1176.78,-140.8 1176.78,-140.8"/>
<polygon fill="black" stroke="black" points="1176.78,-144.3 1186.78,-140.8 1176.78,-137.3 1176.78,-144.3"/>
</g>
<!-- SharedCommonModule -->
<g id="node17" class="node">
<title>SharedCommonModule</title>
<polygon fill="#8dd3c7" stroke="black" points="174.05,-84.8 171.05,-88.8 150.05,-88.8 147.05,-84.8 23.95,-84.8 23.95,-48.8 174.05,-48.8 174.05,-84.8"/>
<text text-anchor="middle" x="99" y="-62.6" font-family="Times,serif" font-size="14.00">SharedCommonModule</text>
</g>
<!-- SharedCommonModule&#45;&gt;CrpModule -->
<g id="edge16" class="edge">
<title>SharedCommonModule&#45;&gt;CrpModule</title>
<path fill="none" stroke="black" d="M99,-85.12C99,-108.46 99,-145.8 99,-145.8 99,-145.8 1176.85,-145.8 1176.85,-145.8"/>
<polygon fill="black" stroke="black" points="1176.85,-149.3 1186.85,-145.8 1176.85,-142.3 1176.85,-149.3"/>
</g>
</g>
</svg>
