<?xml version="1.0" encoding="UTF-8" standalone="no"?>
<!DOCTYPE svg PUBLIC "-//W3C//DTD SVG 1.1//EN"
 "http://www.w3.org/Graphics/SVG/1.1/DTD/svg11.dtd">
<!-- Generated by graphviz version 5.0.0 (20220707.1540)
 -->
<!-- Title: dependencies Pages: 1 -->
<svg width="172pt" height="174pt"
 viewBox="0.00 0.00 172.00 173.80" xmlns="http://www.w3.org/2000/svg" xmlns:xlink="http://www.w3.org/1999/xlink">
<g id="graph0" class="graph" transform="scale(1 1) rotate(0) translate(4 169.8)">
<title>dependencies</title>
<polygon fill="white" stroke="transparent" points="-4,4 -4,-169.8 168,-169.8 168,4 -4,4"/>
<text text-anchor="middle" x="82" y="-8.2" font-family="sans-serif" font-size="14.00">dependencies</text>
<g id="clust1" class="cluster">
<title>cluster_PageRoutingModule</title>
<polygon fill="none" stroke="black" stroke-dasharray="1,5" points="8,-32.8 8,-157.8 156,-157.8 156,-32.8 8,-32.8"/>
</g>
<g id="clust4" class="cluster">
<title>cluster_PageRoutingModule_exports</title>
<polygon fill="none" stroke="black" points="23,-97.8 23,-149.8 141,-149.8 141,-97.8 23,-97.8"/>
</g>
<!-- ProjectModule  -->
<g id="node1" class="node">
<title>ProjectModule </title>
<polygon fill="#fb8072" stroke="black" points="133.21,-141.8 30.79,-141.8 30.79,-105.8 133.21,-105.8 133.21,-141.8"/>
<text text-anchor="middle" x="82" y="-119.6" font-family="Times,serif" font-size="14.00">ProjectModule </text>
</g>
<!-- PageRoutingModule -->
<g id="node2" class="node">
<title>PageRoutingModule</title>
<polygon fill="#8dd3c7" stroke="black" points="147.88,-76.8 144.88,-80.8 123.88,-80.8 120.88,-76.8 16.12,-76.8 16.12,-40.8 147.88,-40.8 147.88,-76.8"/>
<text text-anchor="middle" x="82" y="-54.6" font-family="Times,serif" font-size="14.00">PageRoutingModule</text>
</g>
<!-- PageRoutingModule&#45;&gt;ProjectModule  -->
<g id="edge1" class="edge">
<title>PageRoutingModule&#45;&gt;ProjectModule </title>
<path fill="none" stroke="black" stroke-dasharray="5,2" d="M82,-76.91C82,-76.91 82,-95.79 82,-95.79"/>
<polygon fill="black" stroke="black" points="78.5,-95.79 82,-105.79 85.5,-95.79 78.5,-95.79"/>
</g>
</g>
</svg>
