<?xml version="1.0" encoding="UTF-8" standalone="no"?>
<!DOCTYPE svg PUBLIC "-//W3C//DTD SVG 1.1//EN"
 "http://www.w3.org/Graphics/SVG/1.1/DTD/svg11.dtd">
<!-- Generated by graphviz version 5.0.0 (20220707.1540)
 -->
<!-- Title: dependencies Pages: 1 -->
<svg width="750pt" height="247pt"
 viewBox="0.00 0.00 750.00 246.80" xmlns="http://www.w3.org/2000/svg" xmlns:xlink="http://www.w3.org/1999/xlink">
<g id="graph0" class="graph" transform="scale(1 1) rotate(0) translate(4 242.8)">
<title>dependencies</title>
<polygon fill="white" stroke="transparent" points="-4,4 -4,-242.8 746,-242.8 746,4 -4,4"/>
<text text-anchor="middle" x="371" y="-8.2" font-family="sans-serif" font-size="14.00">dependencies</text>
<g id="clust1" class="cluster">
<title>cluster_AppModule</title>
<polygon fill="none" stroke="black" stroke-dasharray="1,5" points="8,-32.8 8,-230.8 734,-230.8 734,-32.8 8,-32.8"/>
</g>
<g id="clust8" class="cluster">
<title>cluster_AppModule_providers</title>
<polygon fill="none" stroke="black" points="530,-40.8 530,-92.8 726,-92.8 726,-40.8 530,-40.8"/>
</g>
<g id="clust2" class="cluster">
<title>cluster_AppModule_declarations</title>
<polygon fill="none" stroke="black" points="278,-40.8 278,-92.8 522,-92.8 522,-40.8 278,-40.8"/>
</g>
<g id="clust5" class="cluster">
<title>cluster_AppModule_imports</title>
<polygon fill="none" stroke="black" points="16,-40.8 16,-92.8 270,-92.8 270,-40.8 16,-40.8"/>
</g>
<g id="clust7" class="cluster">
<title>cluster_AppModule_bootstrap</title>
<polygon fill="none" stroke="black" points="276,-170.8 276,-222.8 400,-222.8 400,-170.8 276,-170.8"/>
</g>
<!-- AppComponent -->
<g id="node1" class="node">
<title>AppComponent</title>
<polygon fill="#ffffb3" stroke="black" points="513.94,-84.8 408.06,-84.8 408.06,-48.8 513.94,-48.8 513.94,-84.8"/>
<text text-anchor="middle" x="461" y="-62.6" font-family="Times,serif" font-size="14.00">AppComponent</text>
</g>
<!-- AppModule -->
<g id="node3" class="node">
<title>AppModule</title>
<polygon fill="#8dd3c7" stroke="black" points="379.66,-149.8 376.66,-153.8 355.66,-153.8 352.66,-149.8 296.34,-149.8 296.34,-113.8 379.66,-113.8 379.66,-149.8"/>
<text text-anchor="middle" x="338" y="-127.6" font-family="Times,serif" font-size="14.00">AppModule</text>
</g>
<!-- AppComponent&#45;&gt;AppModule -->
<g id="edge1" class="edge">
<title>AppComponent&#45;&gt;AppModule</title>
<path fill="none" stroke="black" d="M461,-84.82C461,-102.17 461,-125.8 461,-125.8 461,-125.8 389.99,-125.8 389.99,-125.8"/>
<polygon fill="black" stroke="black" points="389.99,-122.3 379.99,-125.8 389.99,-129.3 389.99,-122.3"/>
</g>
<!-- dateFormatPipe -->
<g id="node2" class="node">
<title>dateFormatPipe</title>
<polygon fill="#ffffb3" stroke="black" points="390.15,-84.8 285.85,-84.8 285.85,-48.8 390.15,-48.8 390.15,-84.8"/>
<text text-anchor="middle" x="338" y="-62.6" font-family="Times,serif" font-size="14.00">dateFormatPipe</text>
</g>
<!-- dateFormatPipe&#45;&gt;AppModule -->
<g id="edge2" class="edge">
<title>dateFormatPipe&#45;&gt;AppModule</title>
<path fill="none" stroke="black" d="M338,-84.91C338,-84.91 338,-103.79 338,-103.79"/>
<polygon fill="black" stroke="black" points="334.5,-103.79 338,-113.79 341.5,-103.79 334.5,-103.79"/>
</g>
<!-- AppComponent  -->
<g id="node6" class="node">
<title>AppComponent </title>
<polygon fill="#80b1d3" stroke="black" points="392.44,-214.8 283.56,-214.8 283.56,-178.8 392.44,-178.8 392.44,-214.8"/>
<text text-anchor="middle" x="338" y="-192.6" font-family="Times,serif" font-size="14.00">AppComponent </text>
</g>
<!-- AppModule&#45;&gt;AppComponent  -->
<g id="edge5" class="edge">
<title>AppModule&#45;&gt;AppComponent </title>
<path fill="none" stroke="black" stroke-dasharray="1,5" d="M338,-149.91C338,-149.91 338,-168.79 338,-168.79"/>
<polygon fill="black" stroke="black" points="334.5,-168.79 338,-178.79 341.5,-168.79 334.5,-168.79"/>
</g>
<!-- AppRoutingModule -->
<g id="node4" class="node">
<title>AppRoutingModule</title>
<polygon fill="#8dd3c7" stroke="black" points="262.28,-84.8 259.28,-88.8 238.28,-88.8 235.28,-84.8 133.72,-84.8 133.72,-48.8 262.28,-48.8 262.28,-84.8"/>
<text text-anchor="middle" x="198" y="-62.6" font-family="Times,serif" font-size="14.00">AppRoutingModule</text>
</g>
<!-- AppRoutingModule&#45;&gt;AppModule -->
<g id="edge3" class="edge">
<title>AppRoutingModule&#45;&gt;AppModule</title>
<path fill="none" stroke="black" d="M198,-84.82C198,-102.17 198,-125.8 198,-125.8 198,-125.8 286,-125.8 286,-125.8"/>
<polygon fill="black" stroke="black" points="286,-129.3 296,-125.8 286,-122.3 286,-129.3"/>
</g>
<!-- PagesModule -->
<g id="node5" class="node">
<title>PagesModule</title>
<polygon fill="#8dd3c7" stroke="black" points="116.21,-84.8 113.21,-88.8 92.21,-88.8 89.21,-84.8 23.79,-84.8 23.79,-48.8 116.21,-48.8 116.21,-84.8"/>
<text text-anchor="middle" x="70" y="-62.6" font-family="Times,serif" font-size="14.00">PagesModule</text>
</g>
<!-- PagesModule&#45;&gt;AppModule -->
<g id="edge4" class="edge">
<title>PagesModule&#45;&gt;AppModule</title>
<path fill="none" stroke="black" d="M70,-85.08C70,-106.12 70,-137.8 70,-137.8 70,-137.8 286.12,-137.8 286.12,-137.8"/>
<polygon fill="black" stroke="black" points="286.13,-141.3 296.12,-137.8 286.12,-134.3 286.13,-141.3"/>
</g>
<!-- HttpAuthInterceptor -->
<g id="node7" class="node">
<title>HttpAuthInterceptor</title>
<ellipse fill="#fdb462" stroke="black" cx="628" cy="-66.8" rx="89.75" ry="18"/>
<text text-anchor="middle" x="628" y="-62.6" font-family="Times,serif" font-size="14.00">HttpAuthInterceptor</text>
</g>
<!-- HttpAuthInterceptor&#45;&gt;AppModule -->
<g id="edge6" class="edge">
<title>HttpAuthInterceptor&#45;&gt;AppModule</title>
<path fill="none" stroke="black" d="M628,-85.08C628,-106.12 628,-137.8 628,-137.8 628,-137.8 389.86,-137.8 389.86,-137.8"/>
<polygon fill="black" stroke="black" points="389.86,-134.3 379.86,-137.8 389.86,-141.3 389.86,-134.3"/>
</g>
</g>
</svg>
