<?xml version="1.0" encoding="UTF-8" standalone="no"?>
<!DOCTYPE svg PUBLIC "-//W3C//DTD SVG 1.1//EN"
 "http://www.w3.org/Graphics/SVG/1.1/DTD/svg11.dtd">
<!-- Generated by graphviz version 5.0.0 (20220707.1540)
 -->
<!-- Title: dependencies Pages: 1 -->
<svg width="168pt" height="174pt"
 viewBox="0.00 0.00 168.00 173.80" xmlns="http://www.w3.org/2000/svg" xmlns:xlink="http://www.w3.org/1999/xlink">
<g id="graph0" class="graph" transform="scale(1 1) rotate(0) translate(4 169.8)">
<title>dependencies</title>
<polygon fill="white" stroke="transparent" points="-4,4 -4,-169.8 164,-169.8 164,4 -4,4"/>
<text text-anchor="middle" x="80" y="-8.2" font-family="sans-serif" font-size="14.00">dependencies</text>
<g id="clust1" class="cluster">
<title>cluster_AppRoutingModule</title>
<polygon fill="none" stroke="black" stroke-dasharray="1,5" points="8,-32.8 8,-157.8 152,-157.8 152,-32.8 8,-32.8"/>
</g>
<g id="clust4" class="cluster">
<title>cluster_AppRoutingModule_exports</title>
<polygon fill="none" stroke="black" points="26,-97.8 26,-149.8 134,-149.8 134,-97.8 26,-97.8"/>
</g>
<!-- AuthModule  -->
<g id="node1" class="node">
<title>AuthModule </title>
<polygon fill="#fb8072" stroke="black" points="125.55,-141.8 34.45,-141.8 34.45,-105.8 125.55,-105.8 125.55,-141.8"/>
<text text-anchor="middle" x="80" y="-119.6" font-family="Times,serif" font-size="14.00">AuthModule </text>
</g>
<!-- AppRoutingModule -->
<g id="node2" class="node">
<title>AppRoutingModule</title>
<polygon fill="#8dd3c7" stroke="black" points="144.28,-76.8 141.28,-80.8 120.28,-80.8 117.28,-76.8 15.72,-76.8 15.72,-40.8 144.28,-40.8 144.28,-76.8"/>
<text text-anchor="middle" x="80" y="-54.6" font-family="Times,serif" font-size="14.00">AppRoutingModule</text>
</g>
<!-- AppRoutingModule&#45;&gt;AuthModule  -->
<g id="edge1" class="edge">
<title>AppRoutingModule&#45;&gt;AuthModule </title>
<path fill="none" stroke="black" stroke-dasharray="5,2" d="M80,-76.91C80,-76.91 80,-95.79 80,-95.79"/>
<polygon fill="black" stroke="black" points="76.5,-95.79 80,-105.79 83.5,-95.79 76.5,-95.79"/>
</g>
</g>
</svg>
