<?xml version="1.0" encoding="UTF-8" standalone="no"?>
<!DOCTYPE svg PUBLIC "-//W3C//DTD SVG 1.1//EN"
 "http://www.w3.org/Graphics/SVG/1.1/DTD/svg11.dtd">
<!-- Generated by graphviz version 5.0.0 (20220707.1540)
 -->
<!-- Title: dependencies Pages: 1 -->
<svg width="2015pt" height="174pt"
 viewBox="0.00 0.00 2015.00 173.80" xmlns="http://www.w3.org/2000/svg" xmlns:xlink="http://www.w3.org/1999/xlink">
<g id="graph0" class="graph" transform="scale(1 1) rotate(0) translate(4 169.8)">
<title>dependencies</title>
<polygon fill="white" stroke="transparent" points="-4,4 -4,-169.8 2011,-169.8 2011,4 -4,4"/>
<text text-anchor="middle" x="1003.5" y="-8.2" font-family="sans-serif" font-size="14.00">dependencies</text>
<g id="clust1" class="cluster">
<title>cluster_AssigntargetModule</title>
<polygon fill="none" stroke="black" stroke-dasharray="1,5" points="8,-32.8 8,-157.8 1999,-157.8 1999,-32.8 8,-32.8"/>
</g>
<g id="clust2" class="cluster">
<title>cluster_AssigntargetModule_declarations</title>
<polygon fill="none" stroke="black" points="384,-40.8 384,-92.8 1991,-92.8 1991,-40.8 384,-40.8"/>
</g>
<g id="clust13" class="cluster">
<title>cluster_AssigntargetModule_imports</title>
<polygon fill="none" stroke="black" points="16,-40.8 16,-92.8 376,-92.8 376,-40.8 16,-40.8"/>
</g>
<!-- ActivitiesComponent -->
<g id="node1" class="node">
<title>ActivitiesComponent</title>
<polygon fill="#ffffb3" stroke="black" points="1982.77,-84.8 1847.23,-84.8 1847.23,-48.8 1982.77,-48.8 1982.77,-84.8"/>
<text text-anchor="middle" x="1915" y="-62.6" font-family="Times,serif" font-size="14.00">ActivitiesComponent</text>
</g>
<!-- AssigntargetModule -->
<g id="node11" class="node">
<title>AssigntargetModule</title>
<polygon fill="#8dd3c7" stroke="black" points="1067.32,-149.8 1064.32,-153.8 1043.32,-153.8 1040.32,-149.8 936.68,-149.8 936.68,-113.8 1067.32,-113.8 1067.32,-149.8"/>
<text text-anchor="middle" x="1002" y="-127.6" font-family="Times,serif" font-size="14.00">AssigntargetModule</text>
</g>
<!-- ActivitiesComponent&#45;&gt;AssigntargetModule -->
<g id="edge1" class="edge">
<title>ActivitiesComponent&#45;&gt;AssigntargetModule</title>
<path fill="none" stroke="black" d="M1915,-84.89C1915,-107.93 1915,-144.8 1915,-144.8 1915,-144.8 1077.29,-144.8 1077.29,-144.8"/>
<polygon fill="black" stroke="black" points="1077.29,-141.3 1067.29,-144.8 1077.29,-148.3 1077.29,-141.3"/>
</g>
<!-- AssignTComponent -->
<g id="node2" class="node">
<title>AssignTComponent</title>
<polygon fill="#ffffb3" stroke="black" points="1829.28,-84.8 1700.72,-84.8 1700.72,-48.8 1829.28,-48.8 1829.28,-84.8"/>
<text text-anchor="middle" x="1765" y="-62.6" font-family="Times,serif" font-size="14.00">AssignTComponent</text>
</g>
<!-- AssignTComponent&#45;&gt;AssigntargetModule -->
<g id="edge2" class="edge">
<title>AssignTComponent&#45;&gt;AssigntargetModule</title>
<path fill="none" stroke="black" d="M1765,-85.08C1765,-106.12 1765,-137.8 1765,-137.8 1765,-137.8 1077.38,-137.8 1077.38,-137.8"/>
<polygon fill="black" stroke="black" points="1077.38,-134.3 1067.38,-137.8 1077.38,-141.3 1077.38,-134.3"/>
</g>
<!-- AssigninterComponent -->
<g id="node3" class="node">
<title>AssigninterComponent</title>
<polygon fill="#ffffb3" stroke="black" points="1682.88,-84.8 1537.12,-84.8 1537.12,-48.8 1682.88,-48.8 1682.88,-84.8"/>
<text text-anchor="middle" x="1610" y="-62.6" font-family="Times,serif" font-size="14.00">AssigninterComponent</text>
</g>
<!-- AssigninterComponent&#45;&gt;AssigntargetModule -->
<g id="edge3" class="edge">
<title>AssigninterComponent&#45;&gt;AssigntargetModule</title>
<path fill="none" stroke="black" d="M1610,-84.91C1610,-104.14 1610,-131.8 1610,-131.8 1610,-131.8 1077.36,-131.8 1077.36,-131.8"/>
<polygon fill="black" stroke="black" points="1077.36,-128.3 1067.36,-131.8 1077.36,-135.3 1077.36,-128.3"/>
</g>
<!-- AssigntargetComponent -->
<g id="node4" class="node">
<title>AssigntargetComponent</title>
<polygon fill="#ffffb3" stroke="black" points="1519.1,-84.8 1366.9,-84.8 1366.9,-48.8 1519.1,-48.8 1519.1,-84.8"/>
<text text-anchor="middle" x="1443" y="-62.6" font-family="Times,serif" font-size="14.00">AssigntargetComponent</text>
</g>
<!-- AssigntargetComponent&#45;&gt;AssigntargetModule -->
<g id="edge4" class="edge">
<title>AssigntargetComponent&#45;&gt;AssigntargetModule</title>
<path fill="none" stroke="black" d="M1443,-84.82C1443,-102.17 1443,-125.8 1443,-125.8 1443,-125.8 1077.55,-125.8 1077.55,-125.8"/>
<polygon fill="black" stroke="black" points="1077.55,-122.3 1067.55,-125.8 1077.55,-129.3 1077.55,-122.3"/>
</g>
<!-- BlocktargetAddComponent -->
<g id="node5" class="node">
<title>BlocktargetAddComponent</title>
<polygon fill="#ffffb3" stroke="black" points="1349.25,-84.8 1178.75,-84.8 1178.75,-48.8 1349.25,-48.8 1349.25,-84.8"/>
<text text-anchor="middle" x="1264" y="-62.6" font-family="Times,serif" font-size="14.00">BlocktargetAddComponent</text>
</g>
<!-- BlocktargetAddComponent&#45;&gt;AssigntargetModule -->
<g id="edge5" class="edge">
<title>BlocktargetAddComponent&#45;&gt;AssigntargetModule</title>
<path fill="none" stroke="black" d="M1264,-85.04C1264,-100.37 1264,-119.8 1264,-119.8 1264,-119.8 1077.44,-119.8 1077.44,-119.8"/>
<polygon fill="black" stroke="black" points="1077.44,-116.3 1067.44,-119.8 1077.44,-123.3 1077.44,-116.3"/>
</g>
<!-- BlocktargetComponent -->
<g id="node6" class="node">
<title>BlocktargetComponent</title>
<polygon fill="#ffffb3" stroke="black" points="1160.14,-84.8 1013.86,-84.8 1013.86,-48.8 1160.14,-48.8 1160.14,-84.8"/>
<text text-anchor="middle" x="1087" y="-62.6" font-family="Times,serif" font-size="14.00">BlocktargetComponent</text>
</g>
<!-- BlocktargetComponent&#45;&gt;AssigntargetModule -->
<g id="edge6" class="edge">
<title>BlocktargetComponent&#45;&gt;AssigntargetModule</title>
<path fill="none" stroke="black" d="M1040.42,-84.91C1040.42,-84.91 1040.42,-103.79 1040.42,-103.79"/>
<polygon fill="black" stroke="black" points="1036.92,-103.79 1040.42,-113.79 1043.92,-103.79 1036.92,-103.79"/>
</g>
<!-- CrptargetAddComponent -->
<g id="node7" class="node">
<title>CrptargetAddComponent</title>
<polygon fill="#ffffb3" stroke="black" points="996.31,-84.8 837.69,-84.8 837.69,-48.8 996.31,-48.8 996.31,-84.8"/>
<text text-anchor="middle" x="917" y="-62.6" font-family="Times,serif" font-size="14.00">CrptargetAddComponent</text>
</g>
<!-- CrptargetAddComponent&#45;&gt;AssigntargetModule -->
<g id="edge7" class="edge">
<title>CrptargetAddComponent&#45;&gt;AssigntargetModule</title>
<path fill="none" stroke="black" d="M966.5,-84.91C966.5,-84.91 966.5,-103.79 966.5,-103.79"/>
<polygon fill="black" stroke="black" points="963,-103.79 966.5,-113.79 970,-103.79 963,-103.79"/>
</g>
<!-- CrptargetComponent -->
<g id="node8" class="node">
<title>CrptargetComponent</title>
<polygon fill="#ffffb3" stroke="black" points="820.2,-84.8 685.8,-84.8 685.8,-48.8 820.2,-48.8 820.2,-84.8"/>
<text text-anchor="middle" x="753" y="-62.6" font-family="Times,serif" font-size="14.00">CrptargetComponent</text>
</g>
<!-- CrptargetComponent&#45;&gt;AssigntargetModule -->
<g id="edge8" class="edge">
<title>CrptargetComponent&#45;&gt;AssigntargetModule</title>
<path fill="none" stroke="black" d="M753,-85.04C753,-100.37 753,-119.8 753,-119.8 753,-119.8 926.58,-119.8 926.58,-119.8"/>
<polygon fill="black" stroke="black" points="926.58,-123.3 936.58,-119.8 926.58,-116.3 926.58,-123.3"/>
</g>
<!-- TargetComponent -->
<g id="node9" class="node">
<title>TargetComponent</title>
<polygon fill="#ffffb3" stroke="black" points="667.86,-84.8 550.14,-84.8 550.14,-48.8 667.86,-48.8 667.86,-84.8"/>
<text text-anchor="middle" x="609" y="-62.6" font-family="Times,serif" font-size="14.00">TargetComponent</text>
</g>
<!-- TargetComponent&#45;&gt;AssigntargetModule -->
<g id="edge9" class="edge">
<title>TargetComponent&#45;&gt;AssigntargetModule</title>
<path fill="none" stroke="black" d="M609,-84.82C609,-102.17 609,-125.8 609,-125.8 609,-125.8 926.66,-125.8 926.66,-125.8"/>
<polygon fill="black" stroke="black" points="926.66,-129.3 936.66,-125.8 926.66,-122.3 926.66,-129.3"/>
</g>
<!-- TargetTabComponent -->
<g id="node10" class="node">
<title>TargetTabComponent</title>
<polygon fill="#ffffb3" stroke="black" points="531.63,-84.8 392.37,-84.8 392.37,-48.8 531.63,-48.8 531.63,-84.8"/>
<text text-anchor="middle" x="462" y="-62.6" font-family="Times,serif" font-size="14.00">TargetTabComponent</text>
</g>
<!-- TargetTabComponent&#45;&gt;AssigntargetModule -->
<g id="edge10" class="edge">
<title>TargetTabComponent&#45;&gt;AssigntargetModule</title>
<path fill="none" stroke="black" d="M462,-84.91C462,-104.14 462,-131.8 462,-131.8 462,-131.8 926.59,-131.8 926.59,-131.8"/>
<polygon fill="black" stroke="black" points="926.59,-135.3 936.59,-131.8 926.59,-128.3 926.59,-135.3"/>
</g>
<!-- AssigntargetRoutingModule -->
<g id="node12" class="node">
<title>AssigntargetRoutingModule</title>
<polygon fill="#8dd3c7" stroke="black" points="367.94,-84.8 364.94,-88.8 343.94,-88.8 340.94,-84.8 192.06,-84.8 192.06,-48.8 367.94,-48.8 367.94,-84.8"/>
<text text-anchor="middle" x="280" y="-62.6" font-family="Times,serif" font-size="14.00">AssigntargetRoutingModule</text>
</g>
<!-- AssigntargetRoutingModule&#45;&gt;AssigntargetModule -->
<g id="edge11" class="edge">
<title>AssigntargetRoutingModule&#45;&gt;AssigntargetModule</title>
<path fill="none" stroke="black" d="M280,-85.08C280,-106.12 280,-137.8 280,-137.8 280,-137.8 926.65,-137.8 926.65,-137.8"/>
<polygon fill="black" stroke="black" points="926.65,-141.3 936.65,-137.8 926.65,-134.3 926.65,-141.3"/>
</g>
<!-- SharedCommonModule -->
<g id="node13" class="node">
<title>SharedCommonModule</title>
<polygon fill="#8dd3c7" stroke="black" points="174.05,-84.8 171.05,-88.8 150.05,-88.8 147.05,-84.8 23.95,-84.8 23.95,-48.8 174.05,-48.8 174.05,-84.8"/>
<text text-anchor="middle" x="99" y="-62.6" font-family="Times,serif" font-size="14.00">SharedCommonModule</text>
</g>
<!-- SharedCommonModule&#45;&gt;AssigntargetModule -->
<g id="edge12" class="edge">
<title>SharedCommonModule&#45;&gt;AssigntargetModule</title>
<path fill="none" stroke="black" d="M99,-84.89C99,-107.93 99,-144.8 99,-144.8 99,-144.8 926.7,-144.8 926.7,-144.8"/>
<polygon fill="black" stroke="black" points="926.7,-148.3 936.7,-144.8 926.7,-141.3 926.7,-148.3"/>
</g>
</g>
</svg>
