<?xml version="1.0" encoding="UTF-8" standalone="no"?>
<!DOCTYPE svg PUBLIC "-//W3C//DTD SVG 1.1//EN"
 "http://www.w3.org/Graphics/SVG/1.1/DTD/svg11.dtd">
<!-- Generated by graphviz version 5.0.0 (20220707.1540)
 -->
<!-- Title: dependencies Pages: 1 -->
<svg width="2295pt" height="174pt"
 viewBox="0.00 0.00 2295.00 173.80" xmlns="http://www.w3.org/2000/svg" xmlns:xlink="http://www.w3.org/1999/xlink">
<g id="graph0" class="graph" transform="scale(1 1) rotate(0) translate(4 169.8)">
<title>dependencies</title>
<polygon fill="white" stroke="transparent" points="-4,4 -4,-169.8 2291,-169.8 2291,4 -4,4"/>
<text text-anchor="middle" x="1143.5" y="-8.2" font-family="sans-serif" font-size="14.00">dependencies</text>
<g id="clust1" class="cluster">
<title>cluster_AdminModule</title>
<polygon fill="none" stroke="black" stroke-dasharray="1,5" points="8,-32.8 8,-157.8 2279,-157.8 2279,-32.8 8,-32.8"/>
</g>
<g id="clust2" class="cluster">
<title>cluster_AdminModule_declarations</title>
<polygon fill="none" stroke="black" points="352,-40.8 352,-92.8 2271,-92.8 2271,-40.8 352,-40.8"/>
</g>
<g id="clust16" class="cluster">
<title>cluster_AdminModule_imports</title>
<polygon fill="none" stroke="black" points="16,-40.8 16,-92.8 344,-92.8 344,-40.8 16,-40.8"/>
</g>
<!-- AdminTabComponent -->
<g id="node1" class="node">
<title>AdminTabComponent</title>
<polygon fill="#ffffb3" stroke="black" points="2262.99,-84.8 2121.01,-84.8 2121.01,-48.8 2262.99,-48.8 2262.99,-84.8"/>
<text text-anchor="middle" x="2192" y="-62.6" font-family="Times,serif" font-size="14.00">AdminTabComponent</text>
</g>
<!-- AdminModule -->
<g id="node14" class="node">
<title>AdminModule</title>
<polygon fill="#8dd3c7" stroke="black" points="1177.44,-149.8 1174.44,-153.8 1153.44,-153.8 1150.44,-149.8 1078.56,-149.8 1078.56,-113.8 1177.44,-113.8 1177.44,-149.8"/>
<text text-anchor="middle" x="1128" y="-127.6" font-family="Times,serif" font-size="14.00">AdminModule</text>
</g>
<!-- AdminTabComponent&#45;&gt;AdminModule -->
<g id="edge1" class="edge">
<title>AdminTabComponent&#45;&gt;AdminModule</title>
<path fill="none" stroke="black" d="M2192,-85.12C2192,-108.46 2192,-145.8 2192,-145.8 2192,-145.8 1187.54,-145.8 1187.54,-145.8"/>
<polygon fill="black" stroke="black" points="1187.54,-142.3 1177.54,-145.8 1187.54,-149.3 1187.54,-142.3"/>
</g>
<!-- AdminvaluesComponent -->
<g id="node2" class="node">
<title>AdminvaluesComponent</title>
<polygon fill="#ffffb3" stroke="black" points="2102.99,-84.8 1947.01,-84.8 1947.01,-48.8 2102.99,-48.8 2102.99,-84.8"/>
<text text-anchor="middle" x="2025" y="-62.6" font-family="Times,serif" font-size="14.00">AdminvaluesComponent</text>
</g>
<!-- AdminvaluesComponent&#45;&gt;AdminModule -->
<g id="edge2" class="edge">
<title>AdminvaluesComponent&#45;&gt;AdminModule</title>
<path fill="none" stroke="black" d="M2025,-85.09C2025,-107.01 2025,-140.8 2025,-140.8 2025,-140.8 1187.5,-140.8 1187.5,-140.8"/>
<polygon fill="black" stroke="black" points="1187.5,-137.3 1177.5,-140.8 1187.5,-144.3 1187.5,-137.3"/>
</g>
<!-- DdlAddComponent -->
<g id="node3" class="node">
<title>DdlAddComponent</title>
<polygon fill="#ffffb3" stroke="black" points="1929.44,-84.8 1802.56,-84.8 1802.56,-48.8 1929.44,-48.8 1929.44,-84.8"/>
<text text-anchor="middle" x="1866" y="-62.6" font-family="Times,serif" font-size="14.00">DdlAddComponent</text>
</g>
<!-- DdlAddComponent&#45;&gt;AdminModule -->
<g id="edge3" class="edge">
<title>DdlAddComponent&#45;&gt;AdminModule</title>
<path fill="none" stroke="black" d="M1866,-84.83C1866,-105.57 1866,-136.8 1866,-136.8 1866,-136.8 1187.28,-136.8 1187.28,-136.8"/>
<polygon fill="black" stroke="black" points="1187.28,-133.3 1177.28,-136.8 1187.28,-140.3 1187.28,-133.3"/>
</g>
<!-- DdlchildComponent -->
<g id="node4" class="node">
<title>DdlchildComponent</title>
<polygon fill="#ffffb3" stroke="black" points="1785.32,-84.8 1654.68,-84.8 1654.68,-48.8 1785.32,-48.8 1785.32,-84.8"/>
<text text-anchor="middle" x="1720" y="-62.6" font-family="Times,serif" font-size="14.00">DdlchildComponent</text>
</g>
<!-- DdlchildComponent&#45;&gt;AdminModule -->
<g id="edge4" class="edge">
<title>DdlchildComponent&#45;&gt;AdminModule</title>
<path fill="none" stroke="black" d="M1720,-84.91C1720,-104.14 1720,-131.8 1720,-131.8 1720,-131.8 1187.46,-131.8 1187.46,-131.8"/>
<polygon fill="black" stroke="black" points="1187.46,-128.3 1177.46,-131.8 1187.46,-135.3 1187.46,-128.3"/>
</g>
<!-- DdlvaluesComponent -->
<g id="node5" class="node">
<title>DdlvaluesComponent</title>
<polygon fill="#ffffb3" stroke="black" points="1637.1,-84.8 1498.9,-84.8 1498.9,-48.8 1637.1,-48.8 1637.1,-84.8"/>
<text text-anchor="middle" x="1568" y="-62.6" font-family="Times,serif" font-size="14.00">DdlvaluesComponent</text>
</g>
<!-- DdlvaluesComponent&#45;&gt;AdminModule -->
<g id="edge5" class="edge">
<title>DdlvaluesComponent&#45;&gt;AdminModule</title>
<path fill="none" stroke="black" d="M1568,-85.1C1568,-103.07 1568,-127.8 1568,-127.8 1568,-127.8 1187.62,-127.8 1187.62,-127.8"/>
<polygon fill="black" stroke="black" points="1187.62,-124.3 1177.62,-127.8 1187.62,-131.3 1187.62,-124.3"/>
</g>
<!-- DetailsComponent -->
<g id="node6" class="node">
<title>DetailsComponent</title>
<polygon fill="#ffffb3" stroke="black" points="1480.49,-84.8 1359.51,-84.8 1359.51,-48.8 1480.49,-48.8 1480.49,-84.8"/>
<text text-anchor="middle" x="1420" y="-62.6" font-family="Times,serif" font-size="14.00">DetailsComponent</text>
</g>
<!-- DetailsComponent&#45;&gt;AdminModule -->
<g id="edge6" class="edge">
<title>DetailsComponent&#45;&gt;AdminModule</title>
<path fill="none" stroke="black" d="M1420,-84.83C1420,-101.2 1420,-122.8 1420,-122.8 1420,-122.8 1187.53,-122.8 1187.53,-122.8"/>
<polygon fill="black" stroke="black" points="1187.53,-119.3 1177.53,-122.8 1187.53,-126.3 1187.53,-119.3"/>
</g>
<!-- EventAddComponent -->
<g id="node7" class="node">
<title>EventAddComponent</title>
<polygon fill="#ffffb3" stroke="black" points="1341.1,-84.8 1202.9,-84.8 1202.9,-48.8 1341.1,-48.8 1341.1,-84.8"/>
<text text-anchor="middle" x="1272" y="-62.6" font-family="Times,serif" font-size="14.00">EventAddComponent</text>
</g>
<!-- EventAddComponent&#45;&gt;AdminModule -->
<g id="edge7" class="edge">
<title>EventAddComponent&#45;&gt;AdminModule</title>
<path fill="none" stroke="black" d="M1272,-84.99C1272,-99.98 1272,-118.8 1272,-118.8 1272,-118.8 1187.56,-118.8 1187.56,-118.8"/>
<polygon fill="black" stroke="black" points="1187.56,-115.3 1177.56,-118.8 1187.56,-122.3 1187.56,-115.3"/>
</g>
<!-- EventComponent -->
<g id="node8" class="node">
<title>EventComponent</title>
<polygon fill="#ffffb3" stroke="black" points="1184.99,-84.8 1071.01,-84.8 1071.01,-48.8 1184.99,-48.8 1184.99,-84.8"/>
<text text-anchor="middle" x="1128" y="-62.6" font-family="Times,serif" font-size="14.00">EventComponent</text>
</g>
<!-- EventComponent&#45;&gt;AdminModule -->
<g id="edge8" class="edge">
<title>EventComponent&#45;&gt;AdminModule</title>
<path fill="none" stroke="black" d="M1128,-84.91C1128,-84.91 1128,-103.79 1128,-103.79"/>
<polygon fill="black" stroke="black" points="1124.5,-103.79 1128,-113.79 1131.5,-103.79 1124.5,-103.79"/>
</g>
<!-- KpiTabComponent -->
<g id="node9" class="node">
<title>KpiTabComponent</title>
<polygon fill="#ffffb3" stroke="black" points="1053.1,-84.8 928.9,-84.8 928.9,-48.8 1053.1,-48.8 1053.1,-84.8"/>
<text text-anchor="middle" x="991" y="-62.6" font-family="Times,serif" font-size="14.00">KpiTabComponent</text>
</g>
<!-- KpiTabComponent&#45;&gt;AdminModule -->
<g id="edge9" class="edge">
<title>KpiTabComponent&#45;&gt;AdminModule</title>
<path fill="none" stroke="black" d="M991,-84.99C991,-99.98 991,-118.8 991,-118.8 991,-118.8 1068.54,-118.8 1068.54,-118.8"/>
<polygon fill="black" stroke="black" points="1068.54,-122.3 1078.54,-118.8 1068.54,-115.3 1068.54,-122.3"/>
</g>
<!-- KpiconfigComponent -->
<g id="node10" class="node">
<title>KpiconfigComponent</title>
<polygon fill="#ffffb3" stroke="black" points="911.1,-84.8 772.9,-84.8 772.9,-48.8 911.1,-48.8 911.1,-84.8"/>
<text text-anchor="middle" x="842" y="-62.6" font-family="Times,serif" font-size="14.00">KpiconfigComponent</text>
</g>
<!-- KpiconfigComponent&#45;&gt;AdminModule -->
<g id="edge10" class="edge">
<title>KpiconfigComponent&#45;&gt;AdminModule</title>
<path fill="none" stroke="black" d="M842,-84.83C842,-101.2 842,-122.8 842,-122.8 842,-122.8 1068.51,-122.8 1068.51,-122.8"/>
<polygon fill="black" stroke="black" points="1068.51,-126.3 1078.51,-122.8 1068.51,-119.3 1068.51,-126.3"/>
</g>
<!-- OutcomeComponent -->
<g id="node11" class="node">
<title>OutcomeComponent</title>
<polygon fill="#ffffb3" stroke="black" points="755.15,-84.8 622.85,-84.8 622.85,-48.8 755.15,-48.8 755.15,-84.8"/>
<text text-anchor="middle" x="689" y="-62.6" font-family="Times,serif" font-size="14.00">OutcomeComponent</text>
</g>
<!-- OutcomeComponent&#45;&gt;AdminModule -->
<g id="edge11" class="edge">
<title>OutcomeComponent&#45;&gt;AdminModule</title>
<path fill="none" stroke="black" d="M689,-85.1C689,-103.07 689,-127.8 689,-127.8 689,-127.8 1068.49,-127.8 1068.49,-127.8"/>
<polygon fill="black" stroke="black" points="1068.49,-131.3 1078.49,-127.8 1068.49,-124.3 1068.49,-131.3"/>
</g>
<!-- RolesComponent -->
<g id="node12" class="node">
<title>RolesComponent</title>
<polygon fill="#ffffb3" stroke="black" points="604.72,-84.8 491.28,-84.8 491.28,-48.8 604.72,-48.8 604.72,-84.8"/>
<text text-anchor="middle" x="548" y="-62.6" font-family="Times,serif" font-size="14.00">RolesComponent</text>
</g>
<!-- RolesComponent&#45;&gt;AdminModule -->
<g id="edge12" class="edge">
<title>RolesComponent&#45;&gt;AdminModule</title>
<path fill="none" stroke="black" d="M548,-84.91C548,-104.14 548,-131.8 548,-131.8 548,-131.8 1068.55,-131.8 1068.55,-131.8"/>
<polygon fill="black" stroke="black" points="1068.55,-135.3 1078.55,-131.8 1068.55,-128.3 1068.55,-135.3"/>
</g>
<!-- UsersComponent -->
<g id="node13" class="node">
<title>UsersComponent</title>
<polygon fill="#ffffb3" stroke="black" points="473.71,-84.8 360.29,-84.8 360.29,-48.8 473.71,-48.8 473.71,-84.8"/>
<text text-anchor="middle" x="417" y="-62.6" font-family="Times,serif" font-size="14.00">UsersComponent</text>
</g>
<!-- UsersComponent&#45;&gt;AdminModule -->
<g id="edge13" class="edge">
<title>UsersComponent&#45;&gt;AdminModule</title>
<path fill="none" stroke="black" d="M417,-84.83C417,-105.57 417,-136.8 417,-136.8 417,-136.8 1068.57,-136.8 1068.57,-136.8"/>
<polygon fill="black" stroke="black" points="1068.57,-140.3 1078.57,-136.8 1068.57,-133.3 1068.57,-140.3"/>
</g>
<!-- AdminRoutingModule -->
<g id="node15" class="node">
<title>AdminRoutingModule</title>
<polygon fill="#8dd3c7" stroke="black" points="335.56,-84.8 332.56,-88.8 311.56,-88.8 308.56,-84.8 192.44,-84.8 192.44,-48.8 335.56,-48.8 335.56,-84.8"/>
<text text-anchor="middle" x="264" y="-62.6" font-family="Times,serif" font-size="14.00">AdminRoutingModule</text>
</g>
<!-- AdminRoutingModule&#45;&gt;AdminModule -->
<g id="edge14" class="edge">
<title>AdminRoutingModule&#45;&gt;AdminModule</title>
<path fill="none" stroke="black" d="M264,-85.09C264,-107.01 264,-140.8 264,-140.8 264,-140.8 1068.76,-140.8 1068.76,-140.8"/>
<polygon fill="black" stroke="black" points="1068.76,-144.3 1078.76,-140.8 1068.76,-137.3 1068.76,-144.3"/>
</g>
<!-- SharedCommonModule -->
<g id="node16" class="node">
<title>SharedCommonModule</title>
<polygon fill="#8dd3c7" stroke="black" points="174.05,-84.8 171.05,-88.8 150.05,-88.8 147.05,-84.8 23.95,-84.8 23.95,-48.8 174.05,-48.8 174.05,-84.8"/>
<text text-anchor="middle" x="99" y="-62.6" font-family="Times,serif" font-size="14.00">SharedCommonModule</text>
</g>
<!-- SharedCommonModule&#45;&gt;AdminModule -->
<g id="edge15" class="edge">
<title>SharedCommonModule&#45;&gt;AdminModule</title>
<path fill="none" stroke="black" d="M99,-85.12C99,-108.46 99,-145.8 99,-145.8 99,-145.8 1068.72,-145.8 1068.72,-145.8"/>
<polygon fill="black" stroke="black" points="1068.72,-149.3 1078.72,-145.8 1068.72,-142.3 1068.72,-149.3"/>
</g>
</g>
</svg>
